<?xml version="1.0" encoding="utf-8"?>
<!-- Generated by Mocodo 4.3.2 -->
<svg width="1166" height="365" viewBox="0 0 1166 365" xmlns="http://www.w3.org/2000/svg">
<rect x="0" y="0" width="1166" height="365" fill="#f7f7f7" stroke="none" stroke-width="0"/>

<!-- Association IDENTIFIECOMME -->
<g>
	<line x1="456" y1="145" x2="64" y2="331" stroke="#9970ab" stroke-width="2"/>
	<line x1="64" y1="145" x2="64" y2="331" stroke="#9970ab" stroke-width="2"/>
	<g>
		<path d="M105 306 a14 14 90 0 1 14 14 V331 h-110 V320 a14 14 90 0 1 14 -14" fill="#c2a5cf" stroke="#c2a5cf" stroke-width="0"/>
		<path d="M119 331 v11 a14 14 90 0 1 -14 14 H23 a14 14 90 0 1 -14 -14 V331 H110" fill="#e7d4e8" stroke="#e7d4e8" stroke-width="0"/>
		<rect x="9" y="306" width="110" height="50" fill="none" rx="14" stroke="#9970ab" stroke-width="2"/>
		<line x1="9" y1="331" x2="119" y2="331" stroke="#9970ab" stroke-width="1"/>
		<text x="17" y="323.75" fill="#000000" font-family="Verdana" font-size="12">identifieComme</text>
	</g>
	<text x="354" y="176.78" fill="#1b7837" font-family="Verdana" font-size="12">1,1</text>
	<text x="69" y="187" fill="#1b7837" font-family="Verdana" font-size="12">1,n</text>
</g>

<!-- Association ENVOIE -->
<g>
	<line x1="456" y1="145" x2="179" y2="331" stroke="#9970ab" stroke-width="2"/>
	<line x1="179" y1="145" x2="179" y2="331" stroke="#9970ab" stroke-width="2"/>
	<g>
		<path d="M193 306 a14 14 90 0 1 14 14 V331 h-56 V320 a14 14 90 0 1 14 -14" fill="#c2a5cf" stroke="#c2a5cf" stroke-width="0"/>
		<path d="M207 331 v11 a14 14 90 0 1 -14 14 H165 a14 14 90 0 1 -14 -14 V331 H56" fill="#e7d4e8" stroke="#e7d4e8" stroke-width="0"/>
		<rect x="151" y="306" width="56" height="50" fill="none" rx="14" stroke="#9970ab" stroke-width="2"/>
		<line x1="151" y1="331" x2="207" y2="331" stroke="#9970ab" stroke-width="1"/>
		<text x="159" y="323.75" fill="#000000" font-family="Verdana" font-size="12">envoie</text>
	</g>
	<text x="354" y="193.17" fill="#1b7837" font-family="Verdana" font-size="12">0,n</text>
	<text x="153" y="187" fill="#1b7837" font-family="Verdana" font-size="12">0,n</text>
</g>

<!-- Association RECOITMSG -->
<g>
	<line x1="456" y1="145" x2="297" y2="331" stroke="#9970ab" stroke-width="2"/>
	<line x1="179" y1="145" x2="297" y2="331" stroke="#9970ab" stroke-width="2"/>
	<g>
		<path d="M320 306 a14 14 90 0 1 14 14 V331 h-74 V320 a14 14 90 0 1 14 -14" fill="#c2a5cf" stroke="#c2a5cf" stroke-width="0"/>
		<path d="M334 331 v11 a14 14 90 0 1 -14 14 H274 a14 14 90 0 1 -14 -14 V331 H74" fill="#e7d4e8" stroke="#e7d4e8" stroke-width="0"/>
		<rect x="260" y="306" width="74" height="50" fill="none" rx="14" stroke="#9970ab" stroke-width="2"/>
		<line x1="260" y1="331" x2="334" y2="331" stroke="#9970ab" stroke-width="1"/>
		<text x="268" y="323.75" fill="#000000" font-family="Verdana" font-size="12">recoitMsg</text>
	</g>
	<text x="354" y="232.2" fill="#1b7837" font-family="Verdana" font-size="12">0,n</text>
	<text x="173.75" y="187" fill="#1b7837" font-family="Verdana" font-size="12">0,n</text>
</g>

<!-- Association RECOITNOTIG -->
<g>
	<line x1="456" y1="145" x2="456" y2="331" stroke="#9970ab" stroke-width="2"/>
	<line x1="297" y1="145" x2="456" y2="331" stroke="#9970ab" stroke-width="2"/>
	<g>
		<path d="M483 306 a14 14 90 0 1 14 14 V331 h-82 V320 a14 14 90 0 1 14 -14" fill="#c2a5cf" stroke="#c2a5cf" stroke-width="0"/>
		<path d="M497 331 v11 a14 14 90 0 1 -14 14 H429 a14 14 90 0 1 -14 -14 V331 H82" fill="#e7d4e8" stroke="#e7d4e8" stroke-width="0"/>
		<rect x="415" y="306" width="82" height="50" fill="none" rx="14" stroke="#9970ab" stroke-width="2"/>
		<line x1="415" y1="331" x2="497" y2="331" stroke="#9970ab" stroke-width="1"/>
		<text x="423" y="323.75" fill="#000000" font-family="Verdana" font-size="12">recoitNotig</text>
	</g>
	<text x="461" y="298" fill="#1b7837" font-family="Verdana" font-size="12">0,n</text>
	<text x="306.36" y="196" fill="#1b7837" font-family="Verdana" font-size="12">0,n</text>
</g>

<!-- Association MATCH -->
<g>
	<path d="M456 145 C565.79 192.25 618.46 254.25 614 331" fill="none" stroke="#9970ab" stroke-width="2"/>
	<path d="M456 145 C484.88 260.99 537.54 322.99 614 331" fill="none" stroke="#9970ab" stroke-width="2"/>
	<g>
		<path d="M626 306 a14 14 90 0 1 14 14 V331 h-52 V320 a14 14 90 0 1 14 -14" fill="#c2a5cf" stroke="#c2a5cf" stroke-width="0"/>
		<path d="M640 331 v11 a14 14 90 0 1 -14 14 H602 a14 14 90 0 1 -14 -14 V331 H52" fill="#e7d4e8" stroke="#e7d4e8" stroke-width="0"/>
		<rect x="588" y="306" width="52" height="50" fill="none" rx="14" stroke="#9970ab" stroke-width="2"/>
		<line x1="588" y1="331" x2="640" y2="331" stroke="#9970ab" stroke-width="1"/>
		<text x="595" y="323.75" fill="#000000" font-family="Verdana" font-size="12">match</text>
	</g>
	<text x="537" y="221.74" fill="#1b7837" font-family="Verdana" font-size="12">0,n</text>
	<text x="537" y="292.26" fill="#1b7837" font-family="Verdana" font-size="12">0,n</text>
</g>

<!-- Association SIGNALE -->
<g>
	<line x1="456" y1="145" x2="744" y2="331" stroke="#9970ab" stroke-width="2"/>
	<line x1="614" y1="145" x2="744" y2="331" stroke="#9970ab" stroke-width="2"/>
	<g>
		<path d="M759 306 a14 14 90 0 1 14 14 V331 h-58 V320 a14 14 90 0 1 14 -14" fill="#c2a5cf" stroke="#c2a5cf" stroke-width="0"/>
		<path d="M773 331 v11 a14 14 90 0 1 -14 14 H729 a14 14 90 0 1 -14 -14 V331 H58" fill="#e7d4e8" stroke="#e7d4e8" stroke-width="0"/>
		<rect x="715" y="306" width="58" height="50" fill="none" rx="14" stroke="#9970ab" stroke-width="2"/>
		<line x1="715" y1="331" x2="773" y2="331" stroke="#9970ab" stroke-width="1"/>
		<text x="723" y="323.75" fill="#000000" font-family="Verdana" font-size="12">signale</text>
	</g>
	<text x="537" y="191.05" fill="#1b7837" font-family="Verdana" font-size="12">0,n</text>
	<text x="610.8" y="187" fill="#1b7837" font-family="Verdana" font-size="12">0,n</text>
</g>

<!-- Association TRAITESIGNALEMENT -->
<g>
	<line x1="744" y1="145" x2="891" y2="331" stroke="#9970ab" stroke-width="2"/>
	<line x1="614" y1="145" x2="891" y2="331" stroke="#9970ab" stroke-width="2"/>
	<g>
		<path d="M939 306 a14 14 90 0 1 14 14 V331 h-124 V320 a14 14 90 0 1 14 -14" fill="#c2a5cf" stroke="#c2a5cf" stroke-width="0"/>
		<path d="M953 331 v11 a14 14 90 0 1 -14 14 H843 a14 14 90 0 1 -14 -14 V331 H124" fill="#e7d4e8" stroke="#e7d4e8" stroke-width="0"/>
		<rect x="829" y="306" width="124" height="50" fill="none" rx="14" stroke="#9970ab" stroke-width="2"/>
		<line x1="829" y1="331" x2="953" y2="331" stroke="#9970ab" stroke-width="1"/>
		<text x="837" y="323.75" fill="#000000" font-family="Verdana" font-size="12">traiteSignalement</text>
		<text x="836" y="348.8" fill="#000000" font-family="Verdana" font-size="12">boolean bannir</text>
	</g>
	<text x="750.78" y="196" fill="#1b7837" font-family="Verdana" font-size="12">0,n</text>
	<text x="630.37" y="187" fill="#1b7837" font-family="Verdana" font-size="12">0,1</text>
</g>

<!-- Association SINSCRIRE -->
<g>
	<line x1="456" y1="145" x2="1071" y2="331" stroke="#9970ab" stroke-width="2"/>
	<line x1="891" y1="145" x2="1071" y2="331" stroke="#9970ab" stroke-width="2"/>
	<g>
		<path d="M1143 306 a14 14 90 0 1 14 14 V331 h-172 V320 a14 14 90 0 1 14 -14" fill="#c2a5cf" stroke="#c2a5cf" stroke-width="0"/>
		<path d="M1157 331 v11 a14 14 90 0 1 -14 14 H999 a14 14 90 0 1 -14 -14 V331 H172" fill="#e7d4e8" stroke="#e7d4e8" stroke-width="0"/>
		<rect x="985" y="306" width="172" height="50" fill="none" rx="14" stroke="#9970ab" stroke-width="2"/>
		<line x1="985" y1="331" x2="1157" y2="331" stroke="#9970ab" stroke-width="1"/>
		<text x="1045" y="323.75" fill="#000000" font-family="Verdana" font-size="12">sInscrire</text>
		<text x="992" y="348.8" fill="#000000" font-family="Verdana" font-size="12">boolean validerInscription</text>
	</g>
	<text x="537" y="162.34" fill="#1b7837" font-family="Verdana" font-size="12">0,1</text>
	<text x="904.81" y="196" fill="#1b7837" font-family="Verdana" font-size="12">0,1</text>
</g>

<!-- Entity GENRE -->
<g>
	<g>
		<rect x="37" y="120" width="54" height="25" fill="#a6dba0" stroke="none" stroke-width="0" opacity="1"/>
		<rect x="37" y="145" width="54" height="25" fill="#d9f0d3" stroke="none" stroke-width="0" opacity="1"/>
		<rect x="37" y="120" width="54" height="50" fill="none" stroke="#5aae61" stroke-width="2" opacity="1"/>
		<line x1="37" y1="145" x2="91" y2="145" stroke="#5aae61" stroke-width="1"/>
	</g>
	<text x="43" y="137.75" fill="#000000" font-family="Verdana" font-size="12">GENRE</text>
	<text x="42" y="162.8" fill="#000000" font-family="Verdana" font-size="12">sexe</text>
	<line x1="42" y1="165" x2="71" y2="165" stroke="#000000" stroke-width="1"/>
</g>

<!-- Entity MESSAGE -->
<g>
	<g>
		<rect x="144" y="120" width="70" height="25" fill="#a6dba0" stroke="none" stroke-width="0" opacity="1"/>
		<rect x="144" y="145" width="70" height="25" fill="#d9f0d3" stroke="none" stroke-width="0" opacity="1"/>
		<rect x="144" y="120" width="70" height="50" fill="none" stroke="#5aae61" stroke-width="2" opacity="1"/>
		<line x1="144" y1="145" x2="214" y2="145" stroke="#5aae61" stroke-width="1"/>
	</g>
	<text x="149" y="137.75" fill="#000000" font-family="Verdana" font-size="12">MESSAGE</text>
	<text x="149" y="162.8" fill="#000000" font-family="Verdana" font-size="12">Contenu</text>
	<line x1="149" y1="165" x2="200" y2="165" stroke="#000000" stroke-width="1"/>
</g>

<!-- Entity NOTIFICATION -->
<g>
	<g>
		<rect x="246" y="111" width="102" height="25" fill="#a6dba0" stroke="none" stroke-width="0" opacity="1"/>
		<rect x="246" y="136" width="102" height="43" fill="#d9f0d3" stroke="none" stroke-width="0" opacity="1"/>
		<rect x="246" y="111" width="102" height="68" fill="none" stroke="#5aae61" stroke-width="2" opacity="1"/>
		<line x1="246" y1="136" x2="348" y2="136" stroke="#5aae61" stroke-width="1"/>
	</g>
	<text x="252" y="128.75" fill="#000000" font-family="Verdana" font-size="12">NOTIFICATION</text>
	<text x="251" y="153.8" fill="#000000" font-family="Verdana" font-size="12">boolean</text>
	<line x1="251" y1="156" x2="299" y2="156" stroke="#000000" stroke-width="1"/>
	<text x="251" y="170.8" fill="#000000" font-family="Verdana" font-size="12">contenu</text>
</g>

<!-- Entity UTILISATEUR -->
<g>
	<g>
		<rect x="380" y="9" width="152" height="25" fill="#a6dba0" stroke="none" stroke-width="0" opacity="1"/>
		<rect x="380" y="34" width="152" height="247" fill="#d9f0d3" stroke="none" stroke-width="0" opacity="1"/>
		<rect x="380" y="9" width="152" height="272" fill="none" stroke="#5aae61" stroke-width="2" opacity="1"/>
		<line x1="380" y1="34" x2="532" y2="34" stroke="#5aae61" stroke-width="1"/>
	</g>
	<text x="415" y="26.75" fill="#000000" font-family="Verdana" font-size="12">UTILISATEUR</text>
	<text x="385" y="51.8" fill="#000000" font-family="Verdana" font-size="12">id</text>
	<line x1="385" y1="54" x2="397" y2="54" stroke="#000000" stroke-width="1"/>
	<text x="385" y="68.8" fill="#000000" font-family="Verdana" font-size="12">nom</text>
	<text x="385" y="85.8" fill="#000000" font-family="Verdana" font-size="12">age</text>
	<text x="385" y="102.8" fill="#000000" font-family="Verdana" font-size="12">genre</text>
	<text x="385" y="119.8" fill="#000000" font-family="Verdana" font-size="12">ville</text>
	<text x="385" y="136.8" fill="#000000" font-family="Verdana" font-size="12">quartier</text>
	<text x="385" y="153.8" fill="#000000" font-family="Verdana" font-size="12">textePresentation</text>
	<text x="385" y="170.8" fill="#000000" font-family="Verdana" font-size="12">centresDIntrets</text>
	<text x="385" y="187.8" fill="#000000" font-family="Verdana" font-size="12">photos</text>
	<text x="385" y="204.8" fill="#000000" font-family="Verdana" font-size="12">statutCompte</text>
	<text x="385" y="221.8" fill="#000000" font-family="Verdana" font-size="12">Visibilite</text>
	<text x="385" y="238.8" fill="#000000" font-family="Verdana" font-size="12">age</text>
	<text x="385" y="255.8" fill="#000000" font-family="Verdana" font-size="12">genrePrefere</text>
	<text x="385" y="272.8" fill="#000000" font-family="Verdana" font-size="12">ProximiteGeographique</text>
</g>

<!-- Entity SIGNALEMENT -->
<g>
	<g>
		<rect x="564" y="120" width="100" height="25" fill="#a6dba0" stroke="none" stroke-width="0" opacity="1"/>
		<rect x="564" y="145" width="100" height="25" fill="#d9f0d3" stroke="none" stroke-width="0" opacity="1"/>
		<rect x="564" y="120" width="100" height="50" fill="none" stroke="#5aae61" stroke-width="2" opacity="1"/>
		<line x1="564" y1="145" x2="664" y2="145" stroke="#5aae61" stroke-width="1"/>
	</g>
	<text x="570" y="137.75" fill="#000000" font-family="Verdana" font-size="12">SIGNALEMENT</text>
	<text x="569" y="162.8" fill="#000000" font-family="Verdana" font-size="12">id</text>
	<line x1="569" y1="165" x2="581" y2="165" stroke="#000000" stroke-width="1"/>
</g>

<!-- Entity MODERATEUR -->
<g>
	<g>
		<rect x="696" y="111" width="96" height="25" fill="#a6dba0" stroke="none" stroke-width="0" opacity="1"/>
		<rect x="696" y="136" width="96" height="43" fill="#d9f0d3" stroke="none" stroke-width="0" opacity="1"/>
		<rect x="696" y="111" width="96" height="68" fill="none" stroke="#5aae61" stroke-width="2" opacity="1"/>
		<line x1="696" y1="136" x2="792" y2="136" stroke="#5aae61" stroke-width="1"/>
	</g>
	<text x="701" y="128.75" fill="#000000" font-family="Verdana" font-size="12">MODERATEUR</text>
	<text x="701" y="153.8" fill="#000000" font-family="Verdana" font-size="12">id</text>
	<line x1="701" y1="156" x2="713" y2="156" stroke="#000000" stroke-width="1"/>
	<text x="701" y="170.8" fill="#000000" font-family="Verdana" font-size="12">nom</text>
</g>

<!-- Entity AUTHENTIFICATION -->
<g>
	<g>
		<rect x="824" y="111" width="134" height="25" fill="#a6dba0" stroke="none" stroke-width="0" opacity="1"/>
		<rect x="824" y="136" width="134" height="43" fill="#d9f0d3" stroke="none" stroke-width="0" opacity="1"/>
		<rect x="824" y="111" width="134" height="68" fill="none" stroke="#5aae61" stroke-width="2" opacity="1"/>
		<line x1="824" y1="136" x2="958" y2="136" stroke="#5aae61" stroke-width="1"/>
	</g>
	<text x="830" y="128.75" fill="#000000" font-family="Verdana" font-size="12">AUTHENTIFICATION</text>
	<text x="829" y="153.8" fill="#000000" font-family="Verdana" font-size="12">login</text>
	<line x1="829" y1="156" x2="859" y2="156" stroke="#000000" stroke-width="1"/>
	<text x="829" y="170.8" fill="#000000" font-family="Verdana" font-size="12">motDePasse</text>
</g>
</svg>