<?xml version="1.0" encoding="utf-8"?>
<!-- Generated by Mocodo 4.3.2 -->
<svg width="763" height="685" viewBox="0 0 763 685" xmlns="http://www.w3.org/2000/svg">
	<rect x="0" y="0" width="763" height="685" fill="#ffffbf" stroke="none" stroke-width="0"/>

	<!-- Association INTERESSE -->
	<g class="page_0_a20c25ef diagram_page" visibility="visible">
		<line x1="251" y1="321" x2="251" y2="127" stroke="#f46d43" stroke-width="2"/>
		<line x1="251" y1="43" x2="251" y2="127" stroke="#f46d43" stroke-width="2"/>
		<g>
			<path d="M272 102 a14 14 90 0 1 14 14 V127 h-70 V116 a14 14 90 0 1 14 -14" fill="#fdae61" stroke="#fdae61" stroke-width="0"/>
			<path d="M286 127 v11 a14 14 90 0 1 -14 14 H230 a14 14 90 0 1 -14 -14 V127 H70" fill="#fee090" stroke="#fee090" stroke-width="0"/>
			<rect x="216" y="102" width="70" height="50" fill="none" rx="14" stroke="#f46d43" stroke-width="2"/>
			<line x1="216" y1="127" x2="286" y2="127" stroke="#f46d43" stroke-width="1"/>
			<text x="223" y="119.75" fill="#000000" font-family="Verdana" font-size="12">intéressé</text>
		</g>
		<text x="224" y="169" fill="#4575b4" font-family="Verdana" font-size="12">0,N</text>
		<text x="256" y="77" fill="#4575b4" font-family="Verdana" font-size="12">2,2</text>
	</g>

	<!-- Association RECOIT -->
	<g class="page_0_a20c25ef diagram_page" visibility="visible">
		<line x1="251" y1="321" x2="406" y2="127" stroke="#f46d43" stroke-width="2"/>
		<line x1="406" y1="43" x2="406" y2="127" stroke="#f46d43" stroke-width="2"/>
		<g>
			<path d="M417 102 a14 14 90 0 1 14 14 V127 h-50 V116 a14 14 90 0 1 14 -14" fill="#fdae61" stroke="#fdae61" stroke-width="0"/>
			<path d="M431 127 v11 a14 14 90 0 1 -14 14 H395 a14 14 90 0 1 -14 -14 V127 H50" fill="#fee090" stroke="#fee090" stroke-width="0"/>
			<rect x="381" y="102" width="50" height="50" fill="none" rx="14" stroke="#f46d43" stroke-width="2"/>
			<line x1="381" y1="127" x2="431" y2="127" stroke="#f46d43" stroke-width="1"/>
			<text x="389" y="119.75" fill="#000000" font-family="Verdana" font-size="12">reçoit</text>
		</g>
		<text x="336" y="231.91" fill="#4575b4" font-family="Verdana" font-size="12">0,N</text>
		<text x="411" y="94" fill="#4575b4" font-family="Verdana" font-size="12">1,1</text>
		<line x1="411" y1="96" x2="432" y2="96" stroke="#4575b4" stroke-width="1"/>
	</g>

	<!-- Association EXPEDITEUR -->
	<g class="page_0_a20c25ef diagram_page" visibility="visible">
		<line x1="251" y1="321" x2="546" y2="127" stroke="#f46d43" stroke-width="2"/>
		<line x1="546" y1="321" x2="546" y2="127" stroke="#f46d43" stroke-width="2"/>
		<g>
			<path d="M572 102 a14 14 90 0 1 14 14 V127 h-80 V116 a14 14 90 0 1 14 -14" fill="#fdae61" stroke="#fdae61" stroke-width="0"/>
			<path d="M586 127 v11 a14 14 90 0 1 -14 14 H520 a14 14 90 0 1 -14 -14 V127 H80" fill="#fee090" stroke="#fee090" stroke-width="0"/>
			<rect x="506" y="102" width="80" height="50" fill="none" rx="14" stroke="#f46d43" stroke-width="2"/>
			<line x1="506" y1="127" x2="586" y2="127" stroke="#f46d43" stroke-width="1"/>
			<text x="514" y="119.75" fill="#000000" font-family="Verdana" font-size="12">expediteur</text>
		</g>
		<text x="336" y="280.34" fill="#4575b4" font-family="Verdana" font-size="12">0,N</text>
		<text x="551" y="288" fill="#4575b4" font-family="Verdana" font-size="12">1,1</text>
	</g>

	<!-- Association RECOMMENDATIONS -->
	<g class="page_0_a20c25ef diagram_page" visibility="visible">
		<path d="M251 321 C181 354.33 123 354.33 77 321" fill="none" stroke="#f46d43" stroke-width="2"/>
		<path d="M251 321 C181 287.67 123 287.67 77 321" fill="none" stroke="#f46d43" stroke-width="2"/>
		<g>
			<path d="M125 296 a14 14 90 0 1 14 14 V321 h-124 V310 a14 14 90 0 1 14 -14" fill="#fdae61" stroke="#fdae61" stroke-width="0"/>
			<path d="M139 321 v11 a14 14 90 0 1 -14 14 H29 a14 14 90 0 1 -14 -14 V321 H124" fill="#fee090" stroke="#fee090" stroke-width="0"/>
			<rect x="15" y="296" width="124" height="50" fill="none" rx="14" stroke="#f46d43" stroke-width="2"/>
			<line x1="15" y1="321" x2="139" y2="321" stroke="#f46d43" stroke-width="1"/>
			<text x="23" y="313.75" fill="#000000" font-family="Verdana" font-size="12">recommendations</text>
		</g>
		<text x="144" y="337" fill="#4575b4" font-family="Verdana" font-size="12">0,N</text>
		<text x="144" y="314" fill="#4575b4" font-family="Verdana" font-size="12" onmouseover="show_a20c25ef(evt,'liste de personnes qui nous intéressent')" onmouseout="hide_a20c25ef(evt)" style="cursor: pointer;">0,N</text>
	</g>

	<!-- Association DESTINATAIRE -->
	<g class="page_0_a20c25ef diagram_page" visibility="visible">
		<line x1="251" y1="321" x2="406" y2="321" stroke="#f46d43" stroke-width="2"/>
		<line x1="546" y1="321" x2="406" y2="321" stroke="#f46d43" stroke-width="2"/>
		<g>
			<path d="M435 296 a14 14 90 0 1 14 14 V321 h-86 V310 a14 14 90 0 1 14 -14" fill="#fdae61" stroke="#fdae61" stroke-width="0"/>
			<path d="M449 321 v11 a14 14 90 0 1 -14 14 H377 a14 14 90 0 1 -14 -14 V321 H86" fill="#fee090" stroke="#fee090" stroke-width="0"/>
			<rect x="363" y="296" width="86" height="50" fill="none" rx="14" stroke="#f46d43" stroke-width="2"/>
			<line x1="363" y1="321" x2="449" y2="321" stroke="#f46d43" stroke-width="1"/>
			<text x="370" y="313.75" fill="#000000" font-family="Verdana" font-size="12">destinataire</text>
		</g>
		<text x="336" y="338" fill="#4575b4" font-family="Verdana" font-size="12">0,N</text>
		<text x="485" y="338" fill="#4575b4" font-family="Verdana" font-size="12">1,1</text>
	</g>

	<!-- Association MESSAGEOFFENSANT -->
	<g class="page_0_a20c25ef diagram_page" visibility="visible">
		<line x1="546" y1="321" x2="690" y2="321" stroke="#f46d43" stroke-width="2"/>
		<line x1="546" y1="541" x2="690" y2="321" stroke="#f46d43" stroke-width="2"/>
		<g>
			<path d="M740 296 a14 14 90 0 1 14 14 V321 h-128 V310 a14 14 90 0 1 14 -14" fill="#fdae61" stroke="#fdae61" stroke-width="0"/>
			<path d="M754 321 v11 a14 14 90 0 1 -14 14 H640 a14 14 90 0 1 -14 -14 V321 H128" fill="#fee090" stroke="#fee090" stroke-width="0"/>
			<rect x="626" y="296" width="128" height="50" fill="none" rx="14" stroke="#f46d43" stroke-width="2"/>
			<line x1="626" y1="321" x2="754" y2="321" stroke="#f46d43" stroke-width="1"/>
			<text x="634" y="313.75" fill="#000000" font-family="Verdana" font-size="12">messageOffensant</text>
		</g>
		<text x="586" y="338" fill="#4575b4" font-family="Verdana" font-size="12">1,1</text>
		<text x="547.28" y="499" fill="#4575b4" font-family="Verdana" font-size="12">0,1</text>
	</g>

	<!-- Association PERMETLACONNEXION -->
	<g class="page_0_a20c25ef diagram_page" visibility="visible">
		<path d="M251 321 C212.9 433.37 154.9 506.7 77 541" fill="none" stroke="#f46d43" stroke-width="2"/>
		<line x1="251" y1="541" x2="77" y2="541" stroke="#f46d43" stroke-width="2"/>
		<g>
			<path d="M131 516 a14 14 90 0 1 14 14 V541 h-136 V530 a14 14 90 0 1 14 -14" fill="#fdae61" stroke="#fdae61" stroke-width="0"/>
			<path d="M145 541 v11 a14 14 90 0 1 -14 14 H23 a14 14 90 0 1 -14 -14 V541 H136" fill="#fee090" stroke="#fee090" stroke-width="0"/>
			<rect x="9" y="516" width="136" height="50" fill="none" rx="14" stroke="#f46d43" stroke-width="2"/>
			<line x1="9" y1="541" x2="145" y2="541" stroke="#f46d43" stroke-width="1"/>
			<text x="16" y="533.75" fill="#000000" font-family="Verdana" font-size="12">permetLaConnexion</text>
		</g>
		<text x="145" y="467.91" fill="#4575b4" font-family="Verdana" font-size="12">0,1</text>
		<text x="182" y="558" fill="#4575b4" font-family="Verdana" font-size="12">1,1</text>
	</g>

	<!-- Association FAUTIF -->
	<g class="page_0_a20c25ef diagram_page" visibility="visible">
		<line x1="251" y1="321" x2="406" y2="541" stroke="#f46d43" stroke-width="2"/>
		<line x1="546" y1="541" x2="406" y2="541" stroke="#f46d43" stroke-width="2"/>
		<g>
			<path d="M415 516 a14 14 90 0 1 14 14 V541 h-46 V530 a14 14 90 0 1 14 -14" fill="#fdae61" stroke="#fdae61" stroke-width="0"/>
			<path d="M429 541 v11 a14 14 90 0 1 -14 14 H397 a14 14 90 0 1 -14 -14 V541 H46" fill="#fee090" stroke="#fee090" stroke-width="0"/>
			<rect x="383" y="516" width="46" height="50" fill="none" rx="14" stroke="#f46d43" stroke-width="2"/>
			<line x1="383" y1="541" x2="429" y2="541" stroke="#f46d43" stroke-width="1"/>
			<text x="390" y="533.75" fill="#000000" font-family="Verdana" font-size="12">fautif</text>
		</g>
		<text x="336" y="431.91" fill="#4575b4" font-family="Verdana" font-size="12">0,N</text>
		<text x="458" y="558" fill="#4575b4" font-family="Verdana" font-size="12">1,1</text>
	</g>

	<!-- Association VICTIME -->
	<g class="page_0_a20c25ef diagram_page" visibility="visible">
		<line x1="251" y1="321" x2="690" y2="541" stroke="#f46d43" stroke-width="2"/>
		<line x1="546" y1="541" x2="690" y2="541" stroke="#f46d43" stroke-width="2"/>
		<g>
			<path d="M706 516 a14 14 90 0 1 14 14 V541 h-60 V530 a14 14 90 0 1 14 -14" fill="#fdae61" stroke="#fdae61" stroke-width="0"/>
			<path d="M720 541 v11 a14 14 90 0 1 -14 14 H674 a14 14 90 0 1 -14 -14 V541 H60" fill="#fee090" stroke="#fee090" stroke-width="0"/>
			<rect x="660" y="516" width="60" height="50" fill="none" rx="14" stroke="#f46d43" stroke-width="2"/>
			<line x1="660" y1="541" x2="720" y2="541" stroke="#f46d43" stroke-width="1"/>
			<text x="668" y="533.75" fill="#000000" font-family="Verdana" font-size="12">victime</text>
		</g>
		<text x="336" y="357.01" fill="#4575b4" font-family="Verdana" font-size="12">0,N</text>
		<text x="613" y="558" fill="#4575b4" font-family="Verdana" font-size="12">1,1</text>
	</g>

	<!-- Association APPLICATION -->
	<g class="page_0_a20c25ef diagram_page" visibility="visible">
		<line x1="77" y1="642" x2="251" y2="642" stroke="#f46d43" stroke-width="2"/>
		<line x1="251" y1="541" x2="251" y2="642" stroke="#f46d43" stroke-width="2"/>
		<g>
			<path d="M277 617 a14 14 90 0 1 14 14 V642 h-80 V631 a14 14 90 0 1 14 -14" fill="#fdae61" stroke="#fdae61" stroke-width="0"/>
			<path d="M291 642 v11 a14 14 90 0 1 -14 14 H225 a14 14 90 0 1 -14 -14 V642 H80" fill="#fee090" stroke="#fee090" stroke-width="0"/>
			<rect x="211" y="617" width="80" height="50" fill="none" rx="14" stroke="#f46d43" stroke-width="2"/>
			<line x1="211" y1="642" x2="291" y2="642" stroke="#f46d43" stroke-width="1"/>
			<text x="218" y="634.75" fill="#000000" font-family="Verdana" font-size="12">application</text>
		</g>
		<text x="104" y="659" fill="#4575b4" font-family="Verdana" font-size="12">1,1</text>
		<text x="225" y="609" fill="#4575b4" font-family="Verdana" font-size="12">1,1</text>
	</g>

	<!-- Association VERIFIERDOCUMENT -->
	<g class="page_0_a20c25ef diagram_page" visibility="visible">
		<line x1="251" y1="541" x2="406" y2="642" stroke="#f46d43" stroke-width="2"/>
		<line x1="546" y1="642" x2="406" y2="642" stroke="#f46d43" stroke-width="2"/>
		<g>
			<path d="M452 617 a14 14 90 0 1 14 14 V642 h-120 V631 a14 14 90 0 1 14 -14" fill="#fdae61" stroke="#fdae61" stroke-width="0"/>
			<path d="M466 642 v11 a14 14 90 0 1 -14 14 H360 a14 14 90 0 1 -14 -14 V642 H120" fill="#fee090" stroke="#fee090" stroke-width="0"/>
			<rect x="346" y="617" width="120" height="50" fill="none" rx="14" stroke="#f46d43" stroke-width="2"/>
			<line x1="346" y1="642" x2="466" y2="642" stroke="#f46d43" stroke-width="1"/>
			<text x="354" y="634.75" fill="#000000" font-family="Verdana" font-size="12">verifierDocument</text>
		</g>
		<text x="299" y="566.03" fill="#4575b4" font-family="Verdana" font-size="12">1,1</text>
		<text x="471" y="659" fill="#4575b4" font-family="Verdana" font-size="12">0,N</text>
	</g>

	<!-- Association VERIFIESIGNALEMENT -->
	<g class="page_0_a20c25ef diagram_page" visibility="visible">
		<line x1="546" y1="642" x2="690" y2="642" stroke="#f46d43" stroke-width="2"/>
		<line x1="546" y1="541" x2="690" y2="642" stroke="#f46d43" stroke-width="2"/>
		<g>
			<path d="M740 617 a14 14 90 0 1 14 14 V642 h-128 V631 a14 14 90 0 1 14 -14" fill="#fdae61" stroke="#fdae61" stroke-width="0"/>
			<path d="M754 642 v11 a14 14 90 0 1 -14 14 H640 a14 14 90 0 1 -14 -14 V642 H128" fill="#fee090" stroke="#fee090" stroke-width="0"/>
			<rect x="626" y="617" width="128" height="50" fill="none" rx="14" stroke="#f46d43" stroke-width="2"/>
			<line x1="626" y1="642" x2="754" y2="642" stroke="#f46d43" stroke-width="1"/>
			<text x="633" y="634.75" fill="#000000" font-family="Verdana" font-size="12">verifieSignalement</text>
		</g>
		<text x="599" y="659" fill="#4575b4" font-family="Verdana" font-size="12">0,N</text>
		<text x="573.82" y="592" fill="#4575b4" font-family="Verdana" font-size="12">1,1</text>
	</g>

	<!-- Entity MATCH -->
	<g class="page_0_a20c25ef diagram_page" visibility="visible">
		<g>
			<rect x="224" y="26" width="54" height="25" fill="#abd9e9" stroke="none" stroke-width="0" opacity="1"/>
			<rect x="224" y="51" width="54" height="9" fill="#e0f3f8" stroke="none" stroke-width="0" opacity="1"/>
			<rect x="224" y="26" width="54" height="34" fill="none" stroke="#74add1" stroke-width="2" opacity="1"/>
			<line x1="224" y1="51" x2="278" y2="51" stroke="#74add1" stroke-width="1"/>
		</g>
		<text x="229" y="43.75" fill="#000000" font-family="Verdana" font-size="12">MATCH</text>
	</g>

	<!-- Entity NOTIFICATION -->
	<g class="page_0_a20c25ef diagram_page" visibility="visible">
		<g>
			<rect x="355" y="9" width="102" height="25" fill="#abd9e9" stroke="none" stroke-width="0" opacity="1"/>
			<rect x="355" y="34" width="102" height="43" fill="#e0f3f8" stroke="none" stroke-width="0" opacity="1"/>
			<rect x="355" y="9" width="102" height="68" fill="none" stroke="#74add1" stroke-width="2" opacity="1"/>
			<line x1="355" y1="34" x2="457" y2="34" stroke="#74add1" stroke-width="1"/>
		</g>
		<text x="361" y="26.75" fill="#000000" font-family="Verdana" font-size="12">NOTIFICATION</text>
		<text x="360" y="51.8" fill="#000000" font-family="Verdana" font-size="12">contenu</text>
		<line x1="360" y1="54" x2="409" y2="54" stroke="#000000" stroke-width="1" stroke-dasharray="4"/>
		<text x="360" y="68.8" fill="#000000" font-family="Verdana" font-size="12">type</text>
	</g>

	<!-- Entity PROFIL -->
	<g class="page_0_a20c25ef diagram_page" visibility="visible">
		<g>
			<rect x="171" y="177" width="160" height="25" fill="#abd9e9" stroke="none" stroke-width="0" opacity="1"/>
			<rect x="171" y="202" width="160" height="263" fill="#e0f3f8" stroke="none" stroke-width="0" opacity="1"/>
			<rect x="171" y="177" width="160" height="288" fill="none" stroke="#74add1" stroke-width="2" opacity="1"/>
			<line x1="171" y1="202" x2="331" y2="202" stroke="#74add1" stroke-width="1"/>
		</g>
		<text x="229" y="194.75" fill="#000000" font-family="Verdana" font-size="12">PROFIL</text>
		<text x="176" y="219.8" fill="#000000" font-family="Verdana" font-size="12">id</text>
		<line x1="176" y1="222" x2="188" y2="222" stroke="#000000" stroke-width="1"/>
		<text x="176" y="236.8" fill="#000000" font-family="Verdana" font-size="12">nom</text>
		<text x="176" y="253.8" fill="#000000" font-family="Verdana" font-size="12">age</text>
		<text x="176" y="270.8" fill="#000000" font-family="Verdana" font-size="12">ville</text>
		<text x="176" y="287.8" fill="#000000" font-family="Verdana" font-size="12">quartier</text>
		<text x="176" y="304.8" fill="#000000" font-family="Verdana" font-size="12">textePresentation</text>
		<text x="176" y="321.8" fill="#000000" font-family="Verdana" font-size="12">centresInterets</text>
		<text x="176" y="338.8" fill="#000000" font-family="Verdana" font-size="12">photos</text>
		<text x="176" y="355.8" fill="#000000" font-family="Verdana" font-size="12">premierMessageEnvoyer</text>
		<text x="176" y="372.8" fill="#000000" font-family="Verdana" font-size="12">estBloque</text>
		<text x="176" y="389.8" fill="#000000" font-family="Verdana" font-size="12">notifMail</text>
		<text x="176" y="406.8" fill="#000000" font-family="Verdana" font-size="12">agePrefere</text>
		<text x="176" y="423.8" fill="#000000" font-family="Verdana" font-size="12">genrePrefere</text>
		<text x="176" y="440.8" fill="#000000" font-family="Verdana" font-size="12">proximiteGeographique</text>
		<text x="176" y="457.8" fill="#000000" font-family="Verdana" font-size="12">bloqueConversation</text>
	</g>

	<!-- Entity MESSAGE -->
	<g class="page_0_a20c25ef diagram_page" visibility="visible">
		<g>
			<rect x="511" y="296" width="70" height="25" fill="#abd9e9" stroke="none" stroke-width="0" opacity="1"/>
			<rect x="511" y="321" width="70" height="25" fill="#e0f3f8" stroke="none" stroke-width="0" opacity="1"/>
			<rect x="511" y="296" width="70" height="50" fill="none" stroke="#74add1" stroke-width="2" opacity="1"/>
			<line x1="511" y1="321" x2="581" y2="321" stroke="#74add1" stroke-width="1"/>
		</g>
		<text x="516" y="313.75" fill="#000000" font-family="Verdana" font-size="12">MESSAGE</text>
		<text x="516" y="338.8" fill="#000000" font-family="Verdana" font-size="12">contenu</text>
		<line x1="516" y1="341" x2="565" y2="341" stroke="#000000" stroke-width="1"/>
	</g>

	<!-- Entity COMPTE -->
	<g class="page_0_a20c25ef diagram_page" visibility="visible">
		<g>
			<rect x="208" y="490" width="86" height="25" fill="#abd9e9" stroke="none" stroke-width="0" opacity="1"/>
			<rect x="208" y="515" width="86" height="77" fill="#e0f3f8" stroke="none" stroke-width="0" opacity="1"/>
			<rect x="208" y="490" width="86" height="102" fill="none" stroke="#74add1" stroke-width="2" opacity="1"/>
			<line x1="208" y1="515" x2="294" y2="515" stroke="#74add1" stroke-width="1"/>
		</g>
		<text x="226" y="507.75" fill="#000000" font-family="Verdana" font-size="12">COMPTE</text>
		<text x="213" y="532.8" fill="#000000" font-family="Verdana" font-size="12">pseudo</text>
		<line x1="213" y1="535" x2="257" y2="535" stroke="#000000" stroke-width="1"/>
		<text x="213" y="549.8" fill="#000000" font-family="Verdana" font-size="12">email</text>
		<text x="213" y="566.8" fill="#000000" font-family="Verdana" font-size="12">motDePasse</text>
		<text x="213" y="583.8" fill="#000000" font-family="Verdana" font-size="12">document</text>
	</g>

	<!-- Entity SIGNALEMENT -->
	<g class="page_0_a20c25ef diagram_page" visibility="visible">
		<g>
			<rect x="484" y="507" width="124" height="25" fill="#abd9e9" stroke="none" stroke-width="0" opacity="1"/>
			<rect x="484" y="532" width="124" height="43" fill="#e0f3f8" stroke="none" stroke-width="0" opacity="1"/>
			<rect x="484" y="507" width="124" height="68" fill="none" stroke="#74add1" stroke-width="2" opacity="1"/>
			<line x1="484" y1="532" x2="608" y2="532" stroke="#74add1" stroke-width="1"/>
		</g>
		<text x="502" y="524.75" fill="#000000" font-family="Verdana" font-size="12">SIGNALEMENT</text>
		<text x="489" y="549.8" fill="#000000" font-family="Verdana" font-size="12">id</text>
		<line x1="489" y1="552" x2="501" y2="552" stroke="#000000" stroke-width="1"/>
		<text x="489" y="566.8" fill="#000000" font-family="Verdana" font-size="12">raisonSignalement</text>
	</g>

	<!-- Entity MAIN -->
	<g class="page_0_a20c25ef diagram_page" visibility="visible">
		<g>
			<rect x="55" y="625" width="44" height="25" fill="#abd9e9" stroke="none" stroke-width="0" opacity="1"/>
			<rect x="55" y="650" width="44" height="9" fill="#e0f3f8" stroke="none" stroke-width="0" opacity="1"/>
			<rect x="55" y="625" width="44" height="34" fill="none" stroke="#74add1" stroke-width="2" opacity="1"/>
			<line x1="55" y1="650" x2="99" y2="650" stroke="#74add1" stroke-width="1"/>
		</g>
		<text x="61" y="642.75" fill="#000000" font-family="Verdana" font-size="12">MAIN</text>
	</g>

	<!-- Entity MODERATEUR -->
	<g class="page_0_a20c25ef diagram_page" visibility="visible">
		<g>
			<rect x="498" y="608" width="96" height="25" fill="#abd9e9" stroke="none" stroke-width="0" opacity="1"/>
			<rect x="498" y="633" width="96" height="43" fill="#e0f3f8" stroke="none" stroke-width="0" opacity="1"/>
			<rect x="498" y="608" width="96" height="68" fill="none" stroke="#74add1" stroke-width="2" opacity="1"/>
			<line x1="498" y1="633" x2="594" y2="633" stroke="#74add1" stroke-width="1"/>
		</g>
		<text x="503" y="625.75" fill="#000000" font-family="Verdana" font-size="12">MODERATEUR</text>
		<text x="503" y="650.8" fill="#000000" font-family="Verdana" font-size="12">id</text>
		<line x1="503" y1="653" x2="515" y2="653" stroke="#000000" stroke-width="1"/>
		<text x="503" y="667.8" fill="#000000" font-family="Verdana" font-size="12">nom</text>
	</g>

	<!-- Notes -->
	<script type="text/ecmascript">
		<![CDATA[
	function show_a20c25ef(evt, text) {
		var pos = (evt.target.getAttribute("y") < 640) ? "bottom" : "top";
		var note = document.getElementById(pos + "_note_a20c25ef");
		note.textContent = text;
		note.setAttributeNS(null, "visibility", "visible");
		document.getElementById(pos + "_overlay_a20c25ef").setAttributeNS(null, "visibility", "visible");
	}
	function hide_a20c25ef(evt) {
		document.getElementById("top_note_a20c25ef").setAttributeNS(null, "visibility", "hidden");
		document.getElementById("top_overlay_a20c25ef").setAttributeNS(null, "visibility", "hidden");
		document.getElementById("bottom_note_a20c25ef").setAttributeNS(null, "visibility", "hidden");
		document.getElementById("bottom_overlay_a20c25ef").setAttributeNS(null, "visibility", "hidden");
	}
]]>
	</script>
	<rect id="top_overlay_a20c25ef" x="0" y="0" width="100%" height="40" fill="#d73027" stroke-width="0" opacity="0.9" visibility="hidden"/>
	<text id="top_note_a20c25ef" text-anchor="middle" x="381" y="24" fill="#ffffbf" font-family="Verdana" font-size="14" visibility="hidden"></text>
	<rect id="bottom_overlay_a20c25ef" x="0" y="645" width="100%" height="40" fill="#d73027" stroke-width="0" opacity="0.9" visibility="hidden"/>
	<text id="bottom_note_a20c25ef" text-anchor="middle" x="381" y="669" fill="#ffffbf" font-family="Verdana" font-size="14" visibility="hidden"></text>
</svg>